/* XPM */
static char * close_inactive_xpm[] = {
"32 32 12 1",
" 	c #3d3f47",
".	c #282A33",
"+	c #32343E",
"@	c #32353E",
"#	c #777B84",
"$	c #3D4049",
"%	c #3E414A",
"&	c #3C3F48",
"*	c #767A84",
"=	c #3F414A",
"-	c #4F525B",
";	c #7E828B",
"                                ",
"................................",
"................................",
"................................",
"................................",
"................................",
"................................",
"................................",
"................................",
"................................",
"................................",
"............+.......+...........",
"...........@#$.....%#@..........",
"............&*=...&#=...........",
".............&#=.&#=............",
"..............%#-#%.............",
"...............-;-..............",
"..............%#-#%.............",
".............&#=.&#=............",
"............&*=...&#=...........",
"...........@#%.....%#@..........",
"............@.......@...........",
"................................",
"................................",
"................................",
"................................",
"................................",
"................................",
"................................",
"................................",
"................................",
"................................"};
