/* XPM */
static char * hide_pressed_xpm[] = {
"32 32 20 1",
" 	c #3d3f47",
".	c #282A33",
"+	c #33353D",
"@	c #40424A",
"#	c #4B4C54",
"$	c #4F5058",
"%	c #52545B",
"&	c #35373F",
"*	c #4B4D55",
"=	c #53555C",
"-	c #34363E",
";	c #292B34",
">	c #42444C",
",	c #464850",
"'	c #41434B",
")	c #32343D",
"!	c #404149",
"~	c #4A4B53",
"{	c #D3DAE3",
"]	c #3F4149",
"                                ",
"................................",
"................................",
"................................",
"................................",
"............+@#$%$#@+...........",
"..........&*=========*-.........",
"........;@=============>;.......",
".......;,===============,;......",
".......'=================@......",
"......&===================-.....",
"......#===================*.....",
".....+=====================)....",
".....@=====================!....",
".....#=====================~....",
".....$=====================$....",
".....%======{{{{{{{{{======%....",
".....$=====================$....",
".....#=====================~....",
".....@=====================!....",
".....+=====================)....",
"......#===================*.....",
"......-===================-.....",
".......'=================@......",
".......;,===============,;......",
"........;]=============>;.......",
"..........-#=========#-.........",
"............+!~$%$~!)...........",
"................................",
"................................",
"................................",
"................................"};
