/* XPM */
static char * hide_active_xpm[] = {
"32 32 3 1",
" 	c #3d3f47",
".	c #282A33",
"+	c #D3DAE3",
"                                ",
"................................",
"................................",
"................................",
"................................",
"................................",
"................................",
"................................",
"................................",
"................................",
"................................",
"................................",
"................................",
"................................",
"................................",
"................................",
"............+++++++++...........",
"................................",
"................................",
"................................",
"................................",
"................................",
"................................",
"................................",
"................................",
"................................",
"................................",
"................................",
"................................",
"................................",
"................................",
"................................"};
