/* XPM */
static char * light_maximize_pressed_xpm[] = {
"32 32 13 1",
" 	c #FFFFFF",
".	c #FAFBFC",
"+	c #F6F7F8",
"@	c #F2F4F5",
"#	c #EFF1F2",
"$	c #EEEFF0",
"%	c #EDEEF0",
"&	c #F5F7F8",
"*	c #F0F1F2",
"=	c #F9FAFB",
"-	c #F3F4F5",
";	c #F2F3F4",
">	c #5D656B",
"                                ",
"................................",
"................................",
"................................",
"................................",
"............+@#$%$#@+...........",
"..........&*%%%%%%%%%*&.........",
"........=-%%%%%%%%%%%%%-=.......",
".......=;%%%%%%%%%%%%%%%;=......",
".......-%%%%%%%%%%%%%%%%%-......",
"......&%%%%%%%%%%%%%%%%%%%&.....",
"......*%%%%%%%%%%%%%%%%%%%*.....",
".....+%%%%%%>>>>>>>>>%%%%%%+....",
".....@%%%%%%>%%%%%%%>%%%%%%@....",
".....#%%%%%%>%%%%%%%>%%%%%%#....",
".....$%%%%%%>%%%%%%%>%%%%%%$....",
".....%%%%%%%>%%%%%%%>%%%%%%%....",
".....$%%%%%%>%%%%%%%>%%%%%%$....",
".....#%%%%%%>%%%%%%%>%%%%%%#....",
".....@%%%%%%>%%%%%%%>%%%%%%@....",
".....+%%%%%%>>>>>>>>>%%%%%%+....",
"......*%%%%%%%%%%%%%%%%%%%*.....",
"......&%%%%%%%%%%%%%%%%%%%&.....",
".......-%%%%%%%%%%%%%%%%%-......",
".......=;%%%%%%%%%%%%%%%;=......",
"........=-%%%%%%%%%%%%%-=.......",
"..........&*%%%%%%%%%*&.........",
"............+@#$%$#@+...........",
"................................",
"................................",
"................................",
"................................"};
