/* XPM */
static char * light_stuck_pressed_xpm[] = {
"32 32 26 1",
" 	c #FFFFFF",
".	c #FAFBFC",
"+	c #F6F7F8",
"@	c #F2F4F5",
"#	c #EFF1F2",
"$	c #EEEFF0",
"%	c #EDEEF0",
"&	c #F5F7F8",
"*	c #F0F1F2",
"=	c #F9FAFB",
"-	c #F3F4F5",
";	c #F2F3F4",
">	c #CED0D2",
",	c #A1A5A8",
"'	c #767C81",
")	c #5D656B",
"!	c #E4E5E7",
"~	c #AEB1B3",
"{	c #8D9195",
"]	c #C4C7C9",
"^	c #E2E4E5",
"/	c #A9ACAF",
"(	c #E3E5E6",
"_	c #D3D4D7",
":	c #979B9E",
"<	c #5E666C",
"                                ",
"................................",
"................................",
"................................",
"................................",
"............+@#$%$#@+...........",
"..........&*%%%%%%%%%*&.........",
"........=-%%%%%%%%%%%%%-=.......",
".......=;%%%%%%%%%%%%%%%;=......",
".......-%%%%%%%%%%%%%%%%%-......",
"......&%%%%%%>,')',>%%%%%%&.....",
"......*%%%%!~{]^%^]{~!%%%%*.....",
".....+%%%%%~/(%%%%%(/~%%%%%+....",
".....@%%%%>{(%%%%%%%({>%%%%@....",
".....#%%%%,]%%_:<:_%%],%%%%#....",
".....$%%%%'^%%:))):%%^'%%%%$....",
".....%%%%%)%%%<)))<%%%)%%%%%....",
".....$%%%%'^%%:))):%%^'%%%%$....",
".....#%%%%,]%%_:<:_%%],%%%%#....",
".....@%%%%>{(%%%%%%%({>%%%%@....",
".....+%%%%%~/(%%%%%(/~%%%%%+....",
"......*%%%%!~{]^%^]{~!%%%%*.....",
"......&%%%%%%>,')',>%%%%%%&.....",
".......-%%%%%%%%%%%%%%%%%-......",
".......=;%%%%%%%%%%%%%%%;=......",
"........=-%%%%%%%%%%%%%-=.......",
"..........&*%%%%%%%%%*&.........",
"............+@#$%$#@+...........",
"................................",
"................................",
"................................",
"................................"};
