/* XPM */
static char * light_hide_active_xpm[] = {
"32 32 3 1",
" 	c #FFFFFF",
".	c #FAFBFC",
"+	c #5D656B",
"                                ",
"................................",
"................................",
"................................",
"................................",
"................................",
"................................",
"................................",
"................................",
"................................",
"................................",
"................................",
"................................",
"................................",
"................................",
"................................",
"............+++++++++...........",
"................................",
"................................",
"................................",
"................................",
"................................",
"................................",
"................................",
"................................",
"................................",
"................................",
"................................",
"................................",
"................................",
"................................",
"................................"};
