/* XPM */
static char * light_title_1_inactive_xpm[] = {
"6 32 2 1",
" 	c #FFFFFF",
".	c #FAFBFC",
"      ",
"......",
"......",
"......",
"......",
"......",
"......",
"......",
"......",
"......",
"......",
"......",
"......",
"......",
"......",
"......",
"......",
"......",
"......",
"......",
"......",
"......",
"......",
"......",
"......",
"......",
"......",
"......",
"......",
"......",
"......",
"......"};
