/* XPM */
static char * light_close_active_xpm[] = {
"32 32 5 1",
" 	c #FFFFFF",
".	c #FAFBFC",
"+	c #E5E7E8",
"@	c #5D656B",
"#	c #D3D5D6",
"                                ",
"................................",
"................................",
"................................",
"................................",
"................................",
"................................",
"................................",
"................................",
"................................",
"................................",
"............+.......+...........",
"...........+@+.....+@+..........",
"............+@+...+@+...........",
".............+@+.+@+............",
"..............+@#@+.............",
"...............#@#..............",
"..............+@#@+.............",
".............+@+.+@+............",
"............+@+...+@+...........",
"...........+@+.....+@+..........",
"............+.......+...........",
"................................",
"................................",
"................................",
"................................",
"................................",
"................................",
"................................",
"................................",
"................................",
"................................"};
