/* XPM */
static char * light_menu_active_xpm[] = {
"32 32 4 1",
" 	c #FFFFFF",
".	c #FAFBFC",
"+	c #E5E7E8",
"@	c #5D656B",
"                                ",
"................................",
"................................",
"................................",
"................................",
"................................",
"................................",
"................................",
"................................",
"................................",
"................................",
"................................",
"................................",
"................................",
"................................",
"..........+@+..+@+..+@+.........",
"..........@+@..@+@..@+@.........",
"..........+@+..+@+..+@+.........",
"................................",
"................................",
"................................",
"................................",
"................................",
"................................",
"................................",
"................................",
"................................",
"................................",
"................................",
"................................",
"................................",
"................................"};
