/* XPM */
static char * light_maximize_inactive_xpm[] = {
"32 32 3 1",
" 	c #FFFFFF",
".	c #FAFBFC",
"+	c #ABB0B3",
"                                ",
"................................",
"................................",
"................................",
"................................",
"................................",
"................................",
"................................",
"................................",
"................................",
"................................",
"................................",
"............+++++++++...........",
"............+.......+...........",
"............+.......+...........",
"............+.......+...........",
"............+.......+...........",
"............+.......+...........",
"............+.......+...........",
"............+.......+...........",
"............+++++++++...........",
"................................",
"................................",
"................................",
"................................",
"................................",
"................................",
"................................",
"................................",
"................................",
"................................",
"................................"};
