/* XPM */
static char * light_stick_inactive_xpm[] = {
"32 32 13 1",
" 	c #FFFFFF",
".	c #FAFBFC",
"+	c #E5E7E9",
"@	c #CACDCF",
"#	c #B5B9BC",
"$	c #ABB0B3",
"%	c #F4F5F6",
"&	c #D1D4D6",
"*	c #BFC3C5",
"=	c #DFE1E3",
"-	c #F3F4F5",
";	c #CED1D3",
">	c #F3F4F6",
"                                ",
"................................",
"................................",
"................................",
"................................",
"................................",
"................................",
"................................",
"................................",
"................................",
".............+@#$#@+............",
"...........%&*=-.-=*&%..........",
"...........&;>.....>;&..........",
"..........+*>.......>*+.........",
"..........@=.........=@.........",
"..........#-.........-#.........",
"..........$...........$.........",
"..........#-.........-#.........",
"..........@=.........=@.........",
"..........+*>.......>*+.........",
"...........&;>.....>;&..........",
"...........%&*=-.-=*&%..........",
".............+@#$#@+............",
"................................",
"................................",
"................................",
"................................",
"................................",
"................................",
"................................",
"................................",
"................................"};
