/* XPM */
static char * light_close_pressed_xpm[] = {
"32 32 16 1",
" 	c #FFFFFF",
".	c #FAFBFC",
"+	c #EED9DB",
"@	c #E2B1B3",
"#	c #D9898C",
"$	c #D26569",
"%	c #D05258",
"&	c #ECD2D4",
"*	c #DA8F92",
"=	c #F6F1F2",
"-	c #E3B4B6",
";	c #E1ABAD",
">	c #DA898C",
",	c #F8EAEB",
"'	c #E1A6A8",
")	c #FCF3F4",
"                                ",
"................................",
"................................",
"................................",
"................................",
"............+@#$%$#@+...........",
"..........&*%%%%%%%%%*&.........",
"........=-%%%%%%%%%%%%%-=.......",
".......=;%%%%%%%%%%%%%%%;=......",
".......-%%%%%%%%%%%%%%%%%-......",
"......&%%%%%%%%%%%%%%%%%%%&.....",
"......*%%%%%>%%%%%%%>%%%%%*.....",
".....+%%%%%>,>%%%%%>,>%%%%%+....",
".....@%%%%%%>,>%%%>,>%%%%%%@....",
".....#%%%%%%%>,>%>,>%%%%%%%#....",
".....$%%%%%%%%>,',>%%%%%%%%$....",
".....%%%%%%%%%%')'%%%%%%%%%%....",
".....$%%%%%%%%>,',>%%%%%%%%$....",
".....#%%%%%%%>,>%>,>%%%%%%%#....",
".....@%%%%%%>,>%%%>,>%%%%%%@....",
".....+%%%%%>,>%%%%%>,>%%%%%+....",
"......*%%%%%>%%%%%%%>%%%%%*.....",
"......&%%%%%%%%%%%%%%%%%%%&.....",
".......-%%%%%%%%%%%%%%%%%-......",
".......=;%%%%%%%%%%%%%%%;=......",
"........=-%%%%%%%%%%%%%-=.......",
"..........&*%%%%%%%%%*&.........",
"............+@#$%$#@+...........",
"................................",
"................................",
"................................",
"................................"};
