/* XPM */
static char * menu_checkbox_unchecked_xpm[] = {
"28 28 11 1",
" 	c None",
".	c #494B51",
"+	c #777878",
"@	c #808080",
"#	c #777879",
"$	c #484A50",
"%	c #44454C",
"&	c #32343D",
"*	c #44464D",
"=	c #777778",
"-	c #494A51",
"                            ",
"                            ",
"                            ",
"                            ",
"                            ",
"                            ",
"      .+@@@@@@@@@@@#$       ",
"      #%&&&&&&&&&&&*=       ",
"      @&&&&&&&&&&&&&@       ",
"      @&&&&&&&&&&&&&@       ",
"      @&&&&&&&&&&&&&@       ",
"      @&&&&&&&&&&&&&@       ",
"      @&&&&&&&&&&&&&@       ",
"      @&&&&&&&&&&&&&@       ",
"      @&&&&&&&&&&&&&@       ",
"      @&&&&&&&&&&&&&@       ",
"      @&&&&&&&&&&&&&@       ",
"      @&&&&&&&&&&&&&@       ",
"      @&&&&&&&&&&&&&@       ",
"      #*&&&&&&&&&&&*=       ",
"      $#@@@@@@@@@@@=-       ",
"                            ",
"                            ",
"                            ",
"                            ",
"                            ",
"                            ",
"                            "};
