/* XPM */
static char * menu_checkbox_unchecked_hilite_xpm[] = {
"28 28 12 1",
" 	c None",
".	c #78ABE8",
"+	c #C6DCF5",
"@	c #D4E4F8",
"#	c #C5DBF5",
"$	c #77ABE8",
"%	c #6FA6E7",
"&	c #5294E2",
"*	c #70A6E7",
"=	c #5394E2",
"-	c #5395E2",
";	c #71A7E7",
"                            ",
"                            ",
"                            ",
"                            ",
"                            ",
"                            ",
"      .+@@@@@@@@@@@#$       ",
"      #%&&&&&&&&&&&*#       ",
"      @&&&&&&&&&&&&&@       ",
"      @&&&&&&&&&&&&&@       ",
"      @&&&&&&&&&&&=&@       ",
"      @&&&&&&&&&&&-&@       ",
"      @&&&&&&&&&&&&&@       ",
"      @&-&&&&&&&&&&&@       ",
"      @&&&&&&&&&&&&&@       ",
"      @&&&&&&&-&&&&&@       ",
"      @&&&&&&&&&&&&&@       ",
"      @&&&&&&&&&&&&&@       ",
"      @&&&&&&&&&&&&&@       ",
"      #*&&&&&&&&&&&;#       ",
"      $#@@@@@@@@@@@#$       ",
"                            ",
"                            ",
"                            ",
"                            ",
"                            ",
"                            ",
"                            "};
