/* XPM */
static char * menu_arrow_hilite_xpm[] = {
"28 28 6 1",
" 	c None",
".	c #5294e2",
"+	c #A9C7E9",
"@	c #F7F7F7",
"#	c #A3C3E8",
"$	c #A4C4E9",
"                            ",
"                            ",
"                            ",
"                            ",
"                            ",
"                            ",
"                            ",
"                            ",
"          .......           ",
"          .+.....           ",
"          .@+....           ",
"          .@@+...           ",
"          .@@@+..           ",
"          .@@@@+.           ",
"          .@@@@#.           ",
"          .@@@#..           ",
"          .@@#...           ",
"          .@#....           ",
"          .$.....           ",
"          .......           ",
"                            ",
"                            ",
"                            ",
"                            ",
"                            ",
"                            ",
"                            ",
"                            "};
