/* XPM */
static char * shade_inactive_xpm[] = {
"32 32 12 1",
" 	c #3d3f47",
".	c #282A33",
"+	c #494B52",
"@	c #4B4D55",
"#	c #4B4C54",
"$	c #5B5D64",
"%	c #5C5E65",
"&	c #2D2F38",
"*	c #2C2E37",
"=	c #5B5C63",
"-	c #30323B",
";	c #595A61",
"                                ",
"................................",
"................................",
"................................",
"................................",
"................................",
"................................",
"................................",
"................................",
"................................",
"................................",
"................................",
"................................",
"................+@..............",
"...............#$$#.............",
"..............+%&*=@............",
".............+%&..*=@...........",
"............+%&....*=@..........",
"...........+%&......*=@.........",
"..........-;*........*;-........",
"................................",
"................................",
"................................",
"................................",
"................................",
"................................",
"................................",
"................................",
"................................",
"................................",
"................................",
"................................"};
