/* XPM */
static char * stick_pressed_xpm[] = {
"32 32 49 1",
" 	c #3d3f47",
".	c #282A33",
"+	c #33353D",
"@	c #40424A",
"#	c #4B4C54",
"$	c #4F5058",
"%	c #52545B",
"&	c #35373F",
"*	c #4B4D55",
"=	c #53555C",
"-	c #34363E",
";	c #292B34",
">	c #42444C",
",	c #464850",
"'	c #41434B",
")	c #727479",
"!	c #A8A9AD",
"~	c #C7C8CA",
"{	c #D1D2D4",
"]	c #C6C7C9",
"^	c #A7A8AC",
"/	c #717379",
"(	c #55575E",
"_	c #9FA0A4",
":	c #C3C4C6",
"<	c #86888D",
"[	c #616369",
"}	c #56585F",
"|	c #87888D",
"1	c #B0B1B4",
"2	c #595B62",
"3	c #5A5C62",
"4	c #B1B2B5",
"5	c #32343D",
"6	c #C4C4C7",
"7	c #717278",
"8	c #404149",
"9	c #88898E",
"0	c #A7A8AB",
"a	c #4A4B53",
"b	c #62646A",
"c	c #D0D1D3",
"d	c #63646B",
"e	c #C6C6C9",
"f	c #888A8E",
"g	c #C4C5C7",
"h	c #707277",
"i	c #9D9EA2",
"j	c #3F4149",
"                                ",
"................................",
"................................",
"................................",
"................................",
"............+@#$%$#@+...........",
"..........&*=========*-.........",
"........;@=============>;.......",
".......;,===============,;......",
".......'=================@......",
"......&======)!~{]^/======-.....",
"......#====(_:<[}[|:_(====*.....",
".....+=====_12=====34_=====5....",
".....@====):2=======367====8....",
".....#====!<=========90====a....",
".....$====~[=========b]====$....",
".....%===={}=========}c====%....",
".....$====~b=========de====$....",
".....#====^<=========f0====a....",
".....@====/:3=======3gh====8....",
".....+=====_43=====34i=====5....",
"......#====(_g9b}bfgi(====*.....",
"......-======70e{e0h======-.....",
".......'=================@......",
".......;,===============,;......",
"........;j=============>;.......",
"..........-#=========#-.........",
"............+8a$%$a85...........",
"................................",
"................................",
"................................",
"................................"};
