/* XPM */
static char * title_1_active_xpm[] = {
"6 32 2 1",
" 	c #3d3f47",
".	c #282A33",
"      ",
"......",
"......",
"......",
"......",
"......",
"......",
"......",
"......",
"......",
"......",
"......",
"......",
"......",
"......",
"......",
"......",
"......",
"......",
"......",
"......",
"......",
"......",
"......",
"......",
"......",
"......",
"......",
"......",
"......",
"......",
"......"};
