/* XPM */
static char * close_pressed_xpm[] = {
"40 40 49 1",
" 	c #3d3f47",
".	c #282A33",
"+	c #292B34",
"@	c #4A323A",
"#	c #743B42",
"$	c #934349",
"%	c #A1474C",
"&	c #AB494E",
"*	c #4F333B",
"=	c #96454A",
"-	c #AE4A4F",
";	c #954449",
">	c #4D333B",
",	c #2A2A33",
"'	c #743C43",
")	c #783D43",
"!	c #2A2A34",
"~	c #874147",
"{	c #763D43",
"]	c #753D44",
"^	c #4D323B",
"/	c #95444A",
"(	c #B86064",
"_	c #B86165",
":	c #F8EFF0",
"<	c #C2777A",
"[	c #C2777B",
"}	c #48323A",
"|	c #733C43",
"1	c #C17578",
"2	c #F8EFEF",
"3	c #C3797D",
"4	c #723C43",
"5	c #92444A",
"6	c #A2474D",
"7	c #A0464C",
"8	c #D39C9F",
"9	c #FFFFFF",
"0	c #AA494E",
"a	c #934449",
"b	c #723C42",
"c	c #94434A",
"d	c #4E333B",
"e	c #4C333A",
"f	c #884147",
"g	c #874047",
"h	c #2A2B33",
"i	c #703B42",
"j	c #49323A",
"                                        ",
"........................................",
"........................................",
"........................................",
"........................................",
"........................................",
"........................................",
"........................................",
"..............+@#$%%&%%$#@+.............",
".............*=-----------;>............",
"...........,'---------------)!..........",
"..........!~-----------------~,.........",
"..........{-------------------].........",
".........*---------------------^........",
"........+/-----(---------(-----=+.......",
"........@-----_:<-------[:_-----}.......",
"........|------123-----1:3------4.......",
"........$-------1:3---1:3-------5.......",
"........6--------[:3-1:[--------7.......",
"........6---------[:8:[---------7.......",
"........&----------898----------0.......",
"........%---------[:8:[---------7.......",
"........%--------[:3-1:[--------7.......",
"........a-------1:3---1:3-------5.......",
"........#------123-----1:3------b.......",
"........@-----_:[-------[:_-----}.......",
"........+c-----_---------_-----;+.......",
".........d---------------------e........",
"..........{-------------------'.........",
"..........,f-----------------g,.........",
"...........hi---------------)!..........",
".............^/-----------ce............",
"..............+j4577&775b}+.............",
"........................................",
"........................................",
"........................................",
"........................................",
"........................................",
"........................................",
"........................................"};
