/* XPM */
static char * close_active_xpm[] = {
"40 40 10 1",
" 	c #3d3f47",
".	c #282A33",
"+	c #3D4049",
"@	c #C4CBD3",
"#	c #53565F",
"$	c #C5CBD4",
"%	c #51535C",
"&	c #555761",
"*	c #767A83",
"=	c #D3DAE3",
"                                        ",
"........................................",
"........................................",
"........................................",
"........................................",
"........................................",
"........................................",
"........................................",
"........................................",
"........................................",
"........................................",
"........................................",
"........................................",
"........................................",
"...............+.........+..............",
"..............+@#.......#$+.............",
"...............%@&.....%@&..............",
"................%@&...%@&...............",
".................%@&.%@&................",
"..................#@*@#.................",
"...................*=*..................",
"..................#@*@#.................",
".................%@&.%@&................",
"................%@&...%@&...............",
"...............%@&.....%@&..............",
"..............+@#.......#$+.............",
"...............+.........+..............",
"........................................",
"........................................",
"........................................",
"........................................",
"........................................",
"........................................",
"........................................",
"........................................",
"........................................",
"........................................",
"........................................",
"........................................",
"........................................"};
