/* XPM */
static char * light_close_pressed_xpm[] = {
"40 40 19 1",
" 	c #FFFFFF",
".	c #FAFBFC",
"+	c #F9F8F9",
"@	c #ECD3D4",
"#	c #E1ACAE",
"$	c #D88589",
"%	c #D26368",
"&	c #D05258",
"*	c #F9F7F8",
"=	c #E7C3C5",
"-	c #D67A7E",
";	c #F0DFE0",
">	c #DC989B",
",	c #EDD5D7",
"'	c #D78285",
")	c #DA898C",
"!	c #F8EAEB",
"~	c #E1A6A8",
"{	c #FCF3F4",
"                                        ",
"........................................",
"........................................",
"........................................",
"........................................",
"........................................",
"........................................",
"........................................",
"...............+@#$%&%$#@+..............",
".............*=-&&&&&&&&&-=*............",
"............;>&&&&&&&&&&&&&>;...........",
"...........,'&&&&&&&&&&&&&&&',..........",
"..........;'&&&&&&&&&&&&&&&&&';.........",
".........*>&&&&&&&&&&&&&&&&&&&>*........",
".........=&&&&&)&&&&&&&&&)&&&&&=........",
"........+-&&&&)!)&&&&&&&)!)&&&&-+.......",
"........@&&&&&&)!)&&&&&)!)&&&&&&@.......",
"........#&&&&&&&)!)&&&)!)&&&&&&&#.......",
"........$&&&&&&&&)!)&)!)&&&&&&&&$.......",
"........%&&&&&&&&&)!~!)&&&&&&&&&%.......",
"........&&&&&&&&&&&~{~&&&&&&&&&&&.......",
"........%&&&&&&&&&)!~!)&&&&&&&&&%.......",
"........$&&&&&&&&)!)&)!)&&&&&&&&$.......",
"........#&&&&&&&)!)&&&)!)&&&&&&&#.......",
"........@&&&&&&)!)&&&&&)!)&&&&&&@.......",
"........+-&&&&)!)&&&&&&&)!)&&&&-+.......",
".........=&&&&&)&&&&&&&&&)&&&&&=........",
".........*>&&&&&&&&&&&&&&&&&&&>*........",
"..........;'&&&&&&&&&&&&&&&&&';.........",
"...........,'&&&&&&&&&&&&&&&',..........",
"............;>&&&&&&&&&&&&&>;...........",
".............*=-&&&&&&&&&-=*............",
"...............+@#$%&%$#@+..............",
"........................................",
"........................................",
"........................................",
"........................................",
"........................................",
"........................................",
"........................................"};
