/* XPM */
static char * light_stuck_active_xpm[] = {
"40 40 16 1",
" 	c #FFFFFF",
".	c #FAFBFC",
"+	c #D9DBDC",
"@	c #A9ACAE",
"#	c #797F83",
"$	c #5D656B",
"%	c #F0F1F3",
"&	c #B6B9BB",
"*	c #92969A",
"=	c #CFD0D2",
"-	c #EFF0F1",
";	c #B1B4B6",
">	c #EFF1F2",
",	c #DEE0E1",
"'	c #9DA1A4",
")	c #5E666C",
"                                        ",
"........................................",
"........................................",
"........................................",
"........................................",
"........................................",
"........................................",
"........................................",
"........................................",
"........................................",
"........................................",
"........................................",
"........................................",
"........................................",
".................+@#$#@+................",
"...............%&*=-.-=*&%..............",
"...............&;>.....>;&..............",
"..............+*>.......>*+.............",
"..............@=..,')',..=@.............",
"..............#-..'$$$'..-#.............",
"..............$...)$$$)...$.............",
"..............#-..'$$$'..-#.............",
"..............@=..,')',..=@.............",
"..............+*>.......>*+.............",
"...............&;>.....>;&..............",
"...............%&*=-.-=*&%..............",
".................+@#$#@+................",
"........................................",
"........................................",
"........................................",
"........................................",
"........................................",
"........................................",
"........................................",
"........................................",
"........................................",
"........................................",
"........................................",
"........................................",
"........................................"};
