/* XPM */
static char * light_stick_pressed_xpm[] = {
"40 40 24 1",
" 	c #FFFFFF",
".	c #FAFBFC",
"+	c #F5F7F8",
"@	c #F2F3F4",
"#	c #EFF1F2",
"$	c #EEEFF0",
"%	c #EDEEF0",
"&	c #F4F5F6",
"*	c #EFF0F1",
"=	c #F7F8F9",
"-	c #F0F2F3",
";	c #F6F7F8",
">	c #EFF0F2",
",	c #CED0D2",
"'	c #A1A5A8",
")	c #767C81",
"!	c #5D656B",
"~	c #E4E5E7",
"{	c #AEB1B3",
"]	c #8D9195",
"^	c #C4C7C9",
"/	c #E2E4E5",
"(	c #A9ACAF",
"_	c #E3E5E6",
"                                        ",
"........................................",
"........................................",
"........................................",
"........................................",
"........................................",
"........................................",
"........................................",
"................+@#$%$#@+...............",
"..............&*%%%%%%%%%*&.............",
"............=-%%%%%%%%%%%%%-=...........",
"...........;>%%%%%%%%%%%%%%%>;..........",
"..........=>%%%%%%%%%%%%%%%%%>=.........",
"..........-%%%%%%%%%%%%%%%%%%%-.........",
".........&%%%%%%%,')!)',%%%%%%%&........",
".........*%%%%%~{]^/%/^]{~%%%%%*........",
"........+%%%%%%{(_%%%%%_({%%%%%%+.......",
"........@%%%%%,]_%%%%%%%_],%%%%%@.......",
"........#%%%%%'^%%%%%%%%%^'%%%%%#.......",
"........$%%%%%)/%%%%%%%%%/)%%%%%$.......",
"........%%%%%%!%%%%%%%%%%%!%%%%%%.......",
"........$%%%%%)/%%%%%%%%%/)%%%%%$.......",
"........#%%%%%'^%%%%%%%%%^'%%%%%#.......",
"........@%%%%%,]_%%%%%%%_],%%%%%@.......",
"........+%%%%%%{(_%%%%%_({%%%%%%+.......",
".........*%%%%%~{]^/%/^]{~%%%%%*........",
".........&%%%%%%%,')!)',%%%%%%%&........",
"..........-%%%%%%%%%%%%%%%%%%%-.........",
"..........=>%%%%%%%%%%%%%%%%%>=.........",
"...........;>%%%%%%%%%%%%%%%>;..........",
"............=-%%%%%%%%%%%%%-=...........",
"..............&*%%%%%%%%%*&.............",
"................+@#$%$#@+...............",
"........................................",
"........................................",
"........................................",
"........................................",
"........................................",
"........................................",
"........................................"};
