/* XPM */
static char * light_maximize_inactive_xpm[] = {
"40 40 3 1",
" 	c #FFFFFF",
".	c #FAFBFC",
"+	c #ABB0B3",
"                                        ",
"........................................",
"........................................",
"........................................",
"........................................",
"........................................",
"........................................",
"........................................",
"........................................",
"........................................",
"........................................",
"........................................",
"........................................",
"........................................",
"........................................",
"...............+++++++++++..............",
"...............+.........+..............",
"...............+.........+..............",
"...............+.........+..............",
"...............+.........+..............",
"...............+.........+..............",
"...............+.........+..............",
"...............+.........+..............",
"...............+.........+..............",
"...............+.........+..............",
"...............+++++++++++..............",
"........................................",
"........................................",
"........................................",
"........................................",
"........................................",
"........................................",
"........................................",
"........................................",
"........................................",
"........................................",
"........................................",
"........................................",
"........................................",
"........................................"};
