/* XPM */
static char * light_maximize_pressed_xpm[] = {
"40 40 14 1",
" 	c #FFFFFF",
".	c #FAFBFC",
"+	c #F5F7F8",
"@	c #F2F3F4",
"#	c #EFF1F2",
"$	c #EEEFF0",
"%	c #EDEEF0",
"&	c #F4F5F6",
"*	c #EFF0F1",
"=	c #F7F8F9",
"-	c #F0F2F3",
";	c #F6F7F8",
">	c #EFF0F2",
",	c #5D656B",
"                                        ",
"........................................",
"........................................",
"........................................",
"........................................",
"........................................",
"........................................",
"........................................",
"................+@#$%$#@+...............",
"..............&*%%%%%%%%%*&.............",
"............=-%%%%%%%%%%%%%-=...........",
"...........;>%%%%%%%%%%%%%%%>;..........",
"..........=>%%%%%%%%%%%%%%%%%>=.........",
"..........-%%%%%%%%%%%%%%%%%%%-.........",
".........&%%%%%%%%%%%%%%%%%%%%%&........",
".........*%%%%%,,,,,,,,,,,%%%%%*........",
"........+%%%%%%,%%%%%%%%%,%%%%%%+.......",
"........@%%%%%%,%%%%%%%%%,%%%%%%@.......",
"........#%%%%%%,%%%%%%%%%,%%%%%%#.......",
"........$%%%%%%,%%%%%%%%%,%%%%%%$.......",
"........%%%%%%%,%%%%%%%%%,%%%%%%%.......",
"........$%%%%%%,%%%%%%%%%,%%%%%%$.......",
"........#%%%%%%,%%%%%%%%%,%%%%%%#.......",
"........@%%%%%%,%%%%%%%%%,%%%%%%@.......",
"........+%%%%%%,%%%%%%%%%,%%%%%%+.......",
".........*%%%%%,,,,,,,,,,,%%%%%*........",
".........&%%%%%%%%%%%%%%%%%%%%%&........",
"..........-%%%%%%%%%%%%%%%%%%%-.........",
"..........=>%%%%%%%%%%%%%%%%%>=.........",
"...........;>%%%%%%%%%%%%%%%>;..........",
"............=-%%%%%%%%%%%%%-=...........",
"..............&*%%%%%%%%%*&.............",
"................+@#$%$#@+...............",
"........................................",
"........................................",
"........................................",
"........................................",
"........................................",
"........................................",
"........................................"};
