/* XPM */
static char * light_close_active_xpm[] = {
"40 40 5 1",
" 	c #FFFFFF",
".	c #FAFBFC",
"+	c #E5E7E8",
"@	c #5D656B",
"#	c #D3D5D6",
"                                        ",
"........................................",
"........................................",
"........................................",
"........................................",
"........................................",
"........................................",
"........................................",
"........................................",
"........................................",
"........................................",
"........................................",
"........................................",
"........................................",
"...............+.........+..............",
"..............+@+.......+@+.............",
"...............+@+.....+@+..............",
"................+@+...+@+...............",
".................+@+.+@+................",
"..................+@#@+.................",
"...................#@#..................",
"..................+@#@+.................",
".................+@+.+@+................",
"................+@+...+@+...............",
"...............+@+.....+@+..............",
"..............+@+.......+@+.............",
"...............+.........+..............",
"........................................",
"........................................",
"........................................",
"........................................",
"........................................",
"........................................",
"........................................",
"........................................",
"........................................",
"........................................",
"........................................",
"........................................",
"........................................"};
