/* XPM */
static char * light_shade_inactive_xpm[] = {
"40 40 4 1",
" 	c #FFFFFF",
".	c #FAFBFC",
"+	c #EDEEF0",
"@	c #ABB0B3",
"                                        ",
"........................................",
"........................................",
"........................................",
"........................................",
"........................................",
"........................................",
"........................................",
"........................................",
"........................................",
"........................................",
"........................................",
"........................................",
"........................................",
"........................................",
"........................................",
"........................................",
"....................++..................",
"...................+@@+.................",
"..................+@++@+................",
".................+@+..+@+...............",
"................+@+....+@+..............",
"...............+@+......+@+.............",
"..............+@+........+@+............",
"........................................",
"........................................",
"........................................",
"........................................",
"........................................",
"........................................",
"........................................",
"........................................",
"........................................",
"........................................",
"........................................",
"........................................",
"........................................",
"........................................",
"........................................",
"........................................"};
