/* XPM */
static char * menu_inactive_xpm[] = {
"32 32 7 1",
" 	c #3d3f47",
".	c #282A33",
"+	c #4A4B53",
"@	c #66676D",
"#	c #65666D",
"$	c #3B3C45",
"%	c #494B52",
"                                ",
"................................",
"................................",
"................................",
"................................",
"................................",
"................................",
"................................",
"................................",
"................................",
"................................",
"................................",
"................................",
"................................",
"................................",
"..........+@+..+@+..+@+.........",
"..........#$#..#$#..#$#.........",
"..........+#%..+#%..+#%.........",
"................................",
"................................",
"................................",
"................................",
"................................",
"................................",
"................................",
"................................",
"................................",
"................................",
"................................",
"................................",
"................................",
"................................"};
