/* XPM */
static char * menu_active_xpm[] = {
"40 40 8 1",
" 	c #3d3f47",
".	c #282A33",
"+	c #7C7E83",
"@	c #C2C3C5",
"#	c #C1C2C5",
"$	c #56585F",
"%	c #C1C1C4",
"&	c #7B7D82",
"                                        ",
"........................................",
"........................................",
"........................................",
"........................................",
"........................................",
"........................................",
"........................................",
"........................................",
"........................................",
"........................................",
"........................................",
"........................................",
"........................................",
"........................................",
"........................................",
"........................................",
"........................................",
"........................................",
"..............+@+..+@+..+@+.............",
"..............#$%..#$%..#$%.............",
"..............+#&..+#&..+#&.............",
"........................................",
"........................................",
"........................................",
"........................................",
"........................................",
"........................................",
"........................................",
"........................................",
"........................................",
"........................................",
"........................................",
"........................................",
"........................................",
"........................................",
"........................................",
"........................................",
"........................................",
"........................................"};
