/* XPM */
static char * menu_pressed_xpm[] = {
"40 40 25 1",
" 	c #3d3f47",
".	c #282A33",
"+	c #33353D",
"@	c #40424A",
"#	c #4B4C54",
"$	c #4F5058",
"%	c #52545B",
"&	c #35373F",
"*	c #4B4D55",
"=	c #53555C",
"-	c #34363E",
";	c #292B34",
">	c #42444C",
",	c #464850",
"'	c #41434B",
")	c #32343D",
"!	c #404149",
"~	c #4A4B53",
"{	c #96989C",
"]	c #CECFD1",
"^	c #CECED0",
"/	c #787A7F",
"(	c #CDCED0",
"_	c #96979B",
":	c #3F4149",
"                                        ",
"........................................",
"........................................",
"........................................",
"........................................",
"........................................",
"........................................",
"........................................",
"........................................",
"................+@#$%$#@+...............",
"..............&*=========*-.............",
"............;@=============>;...........",
"...........;,===============,;..........",
"...........'=================@..........",
"..........&===================-.........",
"..........#===================*.........",
".........+=====================)........",
".........@=====================!........",
".........#=====================~........",
".........$===={]{=={]{=={]{====$........",
".........%====^/(==^/(==^/(====%........",
".........$===={^_=={^_=={^_====$........",
".........#=====================~........",
".........@=====================!........",
".........+=====================)........",
"..........#===================*.........",
"..........-===================-.........",
"...........'=================@..........",
"...........;,===============,;..........",
"............;:=============>;...........",
"..............-#=========#-.............",
"................+!~$%$~!)...............",
"........................................",
"........................................",
"........................................",
"........................................",
"........................................",
"........................................",
"........................................",
"........................................"};
