/* XPM */
static char * menu_arrow_xpm[] = {
"33 33 6 1",
" 	c None",
".	c #32343D",
"+	c #8F9298",
"@	c #E1E6E9",
"#	c #8A8C93",
"$	c #8A8D93",
"                                 ",
"                                 ",
"                                 ",
"                                 ",
"                                 ",
"                                 ",
"                                 ",
"                                 ",
"                                 ",
"                                 ",
"                                 ",
"             .......             ",
"             .+.....             ",
"             .@+....             ",
"             .@@+...             ",
"             .@@@+..             ",
"             .@@@@+.             ",
"             .@@@@#.             ",
"             .@@@#..             ",
"             .@@#...             ",
"             .@#....             ",
"             .$.....             ",
"             .......             ",
"                                 ",
"                                 ",
"                                 ",
"                                 ",
"                                 ",
"                                 ",
"                                 ",
"                                 ",
"                                 ",
"                                 "};
