/* XPM */
static char * menu_checkbox_checked_xpm[] = {
"33 33 30 1",
" 	c None",
".	c #494B51",
"+	c #777878",
"@	c #808080",
"#	c #777879",
"$	c #484A50",
"%	c #44454C",
"&	c #32343D",
"*	c #44464D",
"=	c #777778",
"-	c #333844",
";	c #3F5C82",
">	c #32353E",
",	c #4A7BB8",
"'	c #4670A3",
")	c #33353F",
"!	c #3B516E",
"~	c #323540",
"{	c #4A7CB8",
"]	c #456FA2",
"^	c #4979B2",
"/	c #4774AA",
"(	c #333641",
"_	c #4877B0",
":	c #4774AC",
"<	c #333946",
"[	c #333741",
"}	c #508ED6",
"|	c #3F5E84",
"1	c #494A51",
"                                 ",
"                                 ",
"                                 ",
"                                 ",
"                                 ",
"                                 ",
"                                 ",
"                                 ",
"                                 ",
"         .+@@@@@@@@@@@#$         ",
"         #%&&&&&&&&&&&*=         ",
"         @&&&&&&&&&&&&&@         ",
"         @&&&&&&&&&&&&&@         ",
"         @&&&&&&&&&-;>&@         ",
"         @&&&&&&&&-,')&@         ",
"         @&&!~&&&-{])&&@         ",
"         @&)^/~&-{])&&&@         ",
"         @&&(_:<,')&&&&@         ",
"         @&&&[^}])&&&&&@         ",
"         @&&&&[|)&&&&&&@         ",
"         @&&&&&&&&&&&&&@         ",
"         @&&&&&&&&&&&&&@         ",
"         #*&&&&&&&&&&&*=         ",
"         $#@@@@@@@@@@@=1         ",
"                                 ",
"                                 ",
"                                 ",
"                                 ",
"                                 ",
"                                 ",
"                                 ",
"                                 ",
"                                 "};
