/* XPM */
static char * menu_checkbox_checked_hilite_xpm[] = {
"33 33 26 1",
" 	c None",
".	c #78ABE8",
"+	c #C6DCF5",
"@	c #D4E4F8",
"#	c #C5DBF5",
"$	c #77ABE8",
"%	c #6FA6E7",
"&	c #5294E2",
"*	c #70A6E7",
"=	c #5998E3",
"-	c #9AC0EE",
";	c #5394E2",
">	c #D2E3F7",
",	c #BDD6F4",
"'	c #5395E2",
")	c #86B4EB",
"!	c #5596E2",
"~	c #CDE0F7",
"{	c #C4DAF5",
"]	c #5697E3",
"^	c #CBDFF6",
"/	c #5B9AE4",
"(	c #5797E3",
"_	c #F3F7FD",
":	c #9DC2EF",
"<	c #71A7E7",
"                                 ",
"                                 ",
"                                 ",
"                                 ",
"                                 ",
"                                 ",
"                                 ",
"                                 ",
"                                 ",
"         .+@@@@@@@@@@@#$         ",
"         #%&&&&&&&&&&&*#         ",
"         @&&&&&&&&&&&&&@         ",
"         @&&&&&&&&&&&&&@         ",
"         @&&&&&&&&&=-;&@         ",
"         @&&&&&&&&=>,'&@         ",
"         @&&)!&&&=@,'&&@         ",
"         @&'~{!&=@,'&&&@         ",
"         @&&]^+/>,'&&&&@         ",
"         @&&&(~_,'&&&&&@         ",
"         @&&&&(:'&&&&&&@         ",
"         @&&&&&&&&&&&&&@         ",
"         @&&&&&&&&&&&&&@         ",
"         #*&&&&&&&&&&&<#         ",
"         $#@@@@@@@@@@@#$         ",
"                                 ",
"                                 ",
"                                 ",
"                                 ",
"                                 ",
"                                 ",
"                                 ",
"                                 ",
"                                 "};
