/* XPM */
static char * shade_active_xpm[] = {
"40 40 13 1",
" 	c #3d3f47",
".	c #282A33",
"+	c #7B7D82",
"@	c #818287",
"#	c #7E7F85",
"$	c #AAABAE",
"%	c #ABABAF",
"&	c #34363E",
"*	c #32343D",
"=	c #A7A8AC",
"-	c #3D3F47",
";	c #A2A3A7",
">	c #33353D",
"                                        ",
"........................................",
"........................................",
"........................................",
"........................................",
"........................................",
"........................................",
"........................................",
"........................................",
"........................................",
"........................................",
"........................................",
"........................................",
"........................................",
"........................................",
"........................................",
"........................................",
"....................+@..................",
"...................#$$#.................",
"..................+%&*=@................",
".................+%&..*=@...............",
"................+%&....*=@..............",
"...............+%&......*=@.............",
"..............-;>........>;-............",
"........................................",
"........................................",
"........................................",
"........................................",
"........................................",
"........................................",
"........................................",
"........................................",
"........................................",
"........................................",
"........................................",
"........................................",
"........................................",
"........................................",
"........................................",
"........................................"};
