/* XPM */
static char * shade_pressed_xpm[] = {
"40 40 30 1",
" 	c #3d3f47",
".	c #282A33",
"+	c #33353D",
"@	c #40424A",
"#	c #4B4C54",
"$	c #4F5058",
"%	c #52545B",
"&	c #35373F",
"*	c #4B4D55",
"=	c #53555C",
"-	c #34363E",
";	c #292B34",
">	c #42444C",
",	c #464850",
"'	c #41434B",
")	c #32343D",
"!	c #66686E",
"~	c #BABBBE",
"{	c #686A70",
"]	c #404149",
"^	c #65676D",
"/	c #C5C6C8",
"(	c #A5A6A9",
"_	c #4A4B53",
":	c #C6C6C9",
"<	c #88898E",
"[	c #84868B",
"}	c #C7C8CA",
"|	c #9D9EA2",
"1	c #3F4149",
"                                        ",
"........................................",
"........................................",
"........................................",
"........................................",
"........................................",
"........................................",
"........................................",
"........................................",
"................+@#$%$#@+...............",
"..............&*=========*-.............",
"............;@=============>;...........",
"...........;,===============,;..........",
"...........'=================@..........",
"..........&===================-.........",
"..........#===================*.........",
".........+=====================)........",
".........@=========!~{=========]........",
".........#========^/(/^========_........",
".........$=======!:<=[}{=======$........",
".........%======!:<===[}{======%........",
".........$=====!:<=====[}{=====$........",
".........#====!:<=======[}{====_........",
".........@====|[=========[|====]........",
".........+=====================)........",
"..........#===================*.........",
"..........-===================-.........",
"...........'=================@..........",
"...........;,===============,;..........",
"............;1=============>;...........",
"..............-#=========#-.............",
"................+]_$%$_])...............",
"........................................",
"........................................",
"........................................",
"........................................",
"........................................",
"........................................",
"........................................",
"........................................"};
