/* XPM */
static char * stuck_inactive_xpm[] = {
"40 40 23 1",
" 	c #3d3f47",
".	c #282A33",
"+	c #373941",
"@	c #52545B",
"#	c #616369",
"$	c #66686E",
"%	c #292B34",
"&	c #4E5057",
"*	c #606168",
"=	c #41434B",
"-	c #2F3139",
";	c #42444C",
">	c #4D4F56",
",	c #56585F",
"'	c #2B2D36",
")	c #414249",
"!	c #5C5D64",
"~	c #686970",
"{	c #51535A",
"]	c #30323A",
"^	c #2A2C35",
"/	c #606269",
"(	c #363841",
"                                        ",
"........................................",
"........................................",
"........................................",
"........................................",
"........................................",
"........................................",
"........................................",
"........................................",
"........................................",
"........................................",
"........................................",
"........................................",
"........................................",
".................+@#$#@+................",
"...............%&*=-%-;*>%..............",
"...............&,'.....',>..............",
"..............+*'.......'*+.............",
"..............@=..)!~!)..;{.............",
"..............#-..!~~~!..]#.............",
"..............$^..~~~~~..^$.............",
"..............#]..!~~~!..]#.............",
"..............@=..)!~!)..;{.............",
"..............+*'.......'/(.............",
"...............>,'.....',>..............",
"...............%>/;]^];/>%..............",
".................+{#$#{(................",
"........................................",
"........................................",
"........................................",
"........................................",
"........................................",
"........................................",
"........................................",
"........................................",
"........................................",
"........................................",
"........................................",
"........................................",
"........................................"};
