/* XPM */
static char * stuck_pressed_xpm[] = {
"40 40 52 1",
" 	c #3d3f47",
".	c #282A33",
"+	c #33353D",
"@	c #40424A",
"#	c #4B4C54",
"$	c #4F5058",
"%	c #52545B",
"&	c #35373F",
"*	c #4B4D55",
"=	c #53555C",
"-	c #34363E",
";	c #292B34",
">	c #42444C",
",	c #464850",
"'	c #41434B",
")	c #727479",
"!	c #A8A9AD",
"~	c #C7C8CA",
"{	c #D1D2D4",
"]	c #C6C7C9",
"^	c #A7A8AC",
"/	c #717379",
"(	c #55575E",
"_	c #9FA0A4",
":	c #C3C4C6",
"<	c #86888D",
"[	c #616369",
"}	c #56585F",
"|	c #87888D",
"1	c #B0B1B4",
"2	c #595B62",
"3	c #5A5C62",
"4	c #B1B2B5",
"5	c #32343D",
"6	c #C4C4C7",
"7	c #717278",
"8	c #404149",
"9	c #838589",
"0	c #B7B8BB",
"a	c #CECFD1",
"b	c #88898E",
"c	c #A7A8AB",
"d	c #4A4B53",
"e	c #62646A",
"f	c #D0D1D3",
"g	c #63646B",
"h	c #C6C6C9",
"i	c #888A8E",
"j	c #C4C5C7",
"k	c #707277",
"l	c #9D9EA2",
"m	c #3F4149",
"                                        ",
"........................................",
"........................................",
"........................................",
"........................................",
"........................................",
"........................................",
"........................................",
"........................................",
"................+@#$%$#@+...............",
"..............&*=========*-.............",
"............;@=============>;...........",
"...........;,===============,;..........",
"...........'=================@..........",
"..........&======)!~{]^/======-.........",
"..........#====(_:<[}[|:_(====*.........",
".........+=====_12=====34_=====5........",
".........@====):2=======367====8........",
".........#====!<==90a09==bc====d........",
".........$====~[==0aaa0==e]====$........",
".........%===={}==aaaaa==}f====%........",
".........$====~e==0aaa0==gh====$........",
".........#====^<==90a09==ic====d........",
".........@====/:3=======3jk====8........",
".........+=====_43=====34l=====5........",
"..........#====(_jbe}eijl(====*.........",
"..........-======7ch{hck======-.........",
"...........'=================@..........",
"...........;,===============,;..........",
"............;m=============>;...........",
"..............-#=========#-.............",
"................+8d$%$d85...............",
"........................................",
"........................................",
"........................................",
"........................................",
"........................................",
"........................................",
"........................................",
"........................................"};
