/* XPM */
static char * stuck_active_xpm[] = {
"40 40 37 1",
" 	c #3d3f47",
".	c #282A33",
"+	c #4F5058",
"@	c #929398",
"#	c #B9BABD",
"$	c #C6C6C9",
"%	c #B8B9BC",
"&	c #919297",
"*	c #4E5057",
"=	c #2B2D35",
"-	c #87888D",
";	c #B4B5B8",
">	c #686970",
",	c #3A3C44",
"'	c #2B2D36",
")	c #696A71",
"!	c #86888D",
"~	c #9C9DA1",
"{	c #30323A",
"]	c #30323B",
"^	c #9D9EA2",
"/	c #B5B5B9",
"(	c #4D4F56",
"_	c #76777A",
":	c #B4B5B7",
"<	c #CECFD1",
"[	c #6A6B71",
"}	c #919296",
"|	c #3B3C45",
"1	c #2C2E37",
"2	c #C5C5C8",
"3	c #3B3D45",
"4	c #B7B8BB",
"5	c #6B6C72",
"6	c #B6B6B9",
"7	c #4C4E55",
"8	c #85868B",
"                                        ",
"........................................",
"........................................",
"........................................",
"........................................",
"........................................",
"........................................",
"........................................",
"........................................",
"........................................",
"........................................",
"........................................",
"........................................",
"........................................",
".................+@#$%&*................",
"...............=-;>,',);!=..............",
"...............-~{.....]^!..............",
"..............+;{.......]/(.............",
"..............@>.._:<:_..[}.............",
"..............#,..:<<<:..|%.............",
"..............$'..<<<<<..12.............",
"..............#|..:<<<:..34.............",
"..............&>.._:<:_..5}.............",
"..............*;].......]67.............",
"...............!^].....]^8..............",
"...............=!6[|'|568=..............",
".................(}4$4}7................",
"........................................",
"........................................",
"........................................",
"........................................",
"........................................",
"........................................",
"........................................",
"........................................",
"........................................",
"........................................",
"........................................",
"........................................",
"........................................"};
